<?xml version="1.0" encoding="UTF-8" standalone="no"?>
<svg
   xmlns:dc="http://purl.org/dc/elements/1.1/"
   xmlns:cc="http://creativecommons.org/ns#"
   xmlns:rdf="http://www.w3.org/1999/02/22-rdf-syntax-ns#"
   xmlns:svg="http://www.w3.org/2000/svg"
   xmlns="http://www.w3.org/2000/svg"
   xmlns:xlink="http://www.w3.org/1999/xlink"
   xmlns:sodipodi="http://sodipodi.sourceforge.net/DTD/sodipodi-0.dtd"
   xmlns:inkscape="http://www.inkscape.org/namespaces/inkscape"
   viewBox="0 -256 1900 1900"
   id="svg2"
   version="1.1"
   inkscape:version="0.48.4 r9939"
   width="100%"
   height="100%"
   sodipodi:docname="clipboard.svg">
  <metadata
     id="metadata12">
    <rdf:RDF>
      <cc:Work
         rdf:about="">
        <dc:format>image/svg+xml</dc:format>
        <dc:type
           rdf:resource="http://purl.org/dc/dcmitype/StillImage" />
        <dc:title></dc:title>
      </cc:Work>
    </rdf:RDF>
  </metadata>
  <defs
     id="defs10">
    <linearGradient
       id="linearGradient3753">
      <stop
         style="stop-color:#f9e094;stop-opacity:1;"
         offset="0"
         id="stop3755" />
      <stop
         style="stop-color:#de964a;stop-opacity:1;"
         offset="1"
         id="stop3757" />
    </linearGradient>
    <linearGradient
       inkscape:collect="always"
       xlink:href="#linearGradient3753"
       id="linearGradient3759"
       x1="1794.5"
       y1="1539.8105"
       x2="1794.5"
       y2="-252.26773"
       gradientUnits="userSpaceOnUse" />
  </defs>
  <sodipodi:namedview
     pagecolor="#ffffff"
     bordercolor="#666666"
     borderopacity="1"
     objecttolerance="10"
     gridtolerance="10"
     guidetolerance="10"
     inkscape:pageopacity="0"
     inkscape:pageshadow="2"
     inkscape:window-width="1920"
     inkscape:window-height="1025"
     id="namedview8"
     showgrid="false"
     inkscape:zoom="0.26339286"
     inkscape:cx="318.91197"
     inkscape:cy="1036.1552"
     inkscape:window-x="1918"
     inkscape:window-y="1077"
     inkscape:window-maximized="1"
     inkscape:current-layer="svg2" />
  <g
     transform="matrix(1,0,0,-1,53.152542,1325.0847)"
     id="g4"
     style="fill:url(#linearGradient3759);fill-opacity:1;stroke:#000000;stroke-opacity:1;stroke-width:10;stroke-miterlimit:4;stroke-dasharray:none">
    <path
       d="m 768,-128 h 896 v 640 h -416 q -40,0 -68,28 -28,28 -28,68 v 416 H 768 V -128 z m 256,1440 v 64 q 0,13 -9.5,22.5 -9.5,9.5 -22.5,9.5 H 288 q -13,0 -22.5,-9.5 Q 256,1389 256,1376 v -64 q 0,-13 9.5,-22.5 9.5,-9.5 22.5,-9.5 h 704 q 13,0 22.5,9.5 9.5,9.5 9.5,22.5 z m 256,-672 h 299 L 1280,939 V 640 z m 512,-128 v -672 q 0,-40 -28,-68 -28,-28 -68,-28 H 736 q -40,0 -68,28 -28,28 -28,68 V 0 H 96 Q 56,0 28,28 0,56 0,96 v 1344 q 0,40 28,68 28,28 68,28 h 1088 q 40,0 68,-28 28,-28 28,-68 v -328 q 21,-13 36,-28 l 408,-408 q 28,-28 48,-76 20,-48 20,-88 z"
       id="path6"
       inkscape:connector-curvature="0"
       style="fill:url(#linearGradient3759);fill-opacity:1;stroke:#000000;stroke-opacity:1;stroke-width:10;stroke-miterlimit:4;stroke-dasharray:none" />
  </g>
</svg>
