<?xml version="1.0" encoding="utf-8"?>
<!-- Generator: Adobe Illustrator 19.0.1, SVG Export Plug-In . SVG Version: 6.00 Build 0)  -->
<svg version="1.1" id="svg2" xmlns:svg="http://www.w3.org/2000/svg"
	 xmlns="http://www.w3.org/2000/svg" xmlns:xlink="http://www.w3.org/1999/xlink" x="0px" y="0px" viewBox="-285 408.5 24.3 24.8"
	 style="enable-background:new -285 408.5 24.3 24.8;" xml:space="preserve">
<style type="text/css">
	.st0{fill:url(#path6_1_);}
	.st1{fill:none;stroke:#FFFFFF;stroke-width:1.5;stroke-linecap:round;}
</style>
<g>
	<g id="g4" transform="matrix(0.01328236,0,0,-0.01328257,0.06650479,20.943343)">
		
			<linearGradient id="path6_1_" gradientUnits="userSpaceOnUse" x1="1612902" y1="-2225073.5" x2="1612902" y2="-2226865.5" gradientTransform="matrix(1.350927e-002 0 0 1.350948e-002 -42335.3164 846.6281)">
			<stop  offset="0" style="stop-color:#F9E094"/>
			<stop  offset="1" style="stop-color:#DE964A"/>
		</linearGradient>
		<path id="path6" class="st0" d="M-20676.4-30909.2h911.3v650.9h-423.1c-27.1,0-50.2,9.5-69.2,28.5c-19,19-28.5,42-28.5,69.2v423.1
			h-390.6V-30909.2z M-20416-29444.7v65.1c0,8.8-3.2,16.4-9.7,22.9s-14.1,9.7-22.9,9.7h-716c-8.8,0-16.4-3.2-22.9-9.7
			c-6.4-6.4-9.7-14.1-9.7-22.9v-65.1c0-8.8,3.2-16.4,9.7-22.9c6.4-6.4,14.1-9.7,22.9-9.7h716c8.8,0,16.4,3.2,22.9,9.7
			S-20416-29453.5-20416-29444.7z M-20155.6-30128.1h304.1l-304.1,304.1V-30128.1z M-19634.9-30258.3v-683.5
			c0-27.1-9.5-50.2-28.5-69.2c-19-19-42-28.5-69.2-28.5h-976.4c-27.1,0-50.2,9.5-69.2,28.5c-19,19-28.5,42-28.5,69.2v162.7h-553.3
			c-27.1,0-50.2,9.5-69.2,28.5s-28.5,42-28.5,69.2v1366.9c0,27.1,9.5,50.2,28.5,69.2s42,28.5,69.2,28.5h1106.6
			c27.1,0,50.2-9.5,69.2-28.5s28.5-42,28.5-69.2v-333.6c14.2-8.8,26.4-18.3,36.6-28.5l415-415c19-19,35.3-44.8,48.8-77.3
			C-19641.6-30201.3-19634.9-30231.2-19634.9-30258.3z"/>
	</g>
	<g>
		<path id="path2983" class="st1" d="M-282.5,418.9l4.5,4.5"/>
		<path id="path2983-8" class="st1" d="M-278,418.9l-4.5,4.5"/>
	</g>
</g>
</svg>
